<?xml version="1.0" encoding="UTF-8" standalone="no"?>
<!DOCTYPE svg PUBLIC "-//W3C//DTD SVG 1.1//EN"
 "http://www.w3.org/Graphics/SVG/1.1/DTD/svg11.dtd">
<!-- Generated by graphviz version 2.40.1 (20161225.0304)
 -->
<!-- Title: G Pages: 1 -->
<svg width="761pt" height="294pt"
 viewBox="0.00 0.00 760.66 294.00" xmlns="http://www.w3.org/2000/svg" xmlns:xlink="http://www.w3.org/1999/xlink">
<g id="graph0" class="graph" transform="scale(1 1) rotate(0) translate(4 290)">
<title>G</title>
<polygon fill="#ffffff" stroke="transparent" points="-4,4 -4,-290 756.6597,-290 756.6597,4 -4,4"/>
<g id="clust1" class="cluster">
<title>cluster_Global</title>
<path fill="none" stroke="#c0c0c0" d="M497.6597,-8C497.6597,-8 732.6597,-8 732.6597,-8 738.6597,-8 744.6597,-14 744.6597,-20 744.6597,-20 744.6597,-266 744.6597,-266 744.6597,-272 738.6597,-278 732.6597,-278 732.6597,-278 497.6597,-278 497.6597,-278 491.6597,-278 485.6597,-272 485.6597,-266 485.6597,-266 485.6597,-20 485.6597,-20 485.6597,-14 491.6597,-8 497.6597,-8"/>
<text text-anchor="middle" x="615.1597" y="-265.2" font-family="Times,serif" font-size="11.00" fill="#c0c0c0">Global</text>
</g>
<g id="clust2" class="cluster">
<title>cluster_\OrbitronDev</title>
<path fill="none" stroke="#c0c0c0" d="M505.6597,-16C505.6597,-16 724.6597,-16 724.6597,-16 730.6597,-16 736.6597,-22 736.6597,-28 736.6597,-28 736.6597,-238 736.6597,-238 736.6597,-244 730.6597,-250 724.6597,-250 724.6597,-250 505.6597,-250 505.6597,-250 499.6597,-250 493.6597,-244 493.6597,-238 493.6597,-238 493.6597,-28 493.6597,-28 493.6597,-22 499.6597,-16 505.6597,-16"/>
<text text-anchor="middle" x="615.1597" y="-237.2" font-family="Times,serif" font-size="11.00" fill="#c0c0c0">OrbitronDev</text>
</g>
<g id="clust3" class="cluster">
<title>cluster_\OrbitronDev\OAuth2</title>
<path fill="none" stroke="#c0c0c0" d="M513.6597,-24C513.6597,-24 716.6597,-24 716.6597,-24 722.6597,-24 728.6597,-30 728.6597,-36 728.6597,-36 728.6597,-210 728.6597,-210 728.6597,-216 722.6597,-222 716.6597,-222 716.6597,-222 513.6597,-222 513.6597,-222 507.6597,-222 501.6597,-216 501.6597,-210 501.6597,-210 501.6597,-36 501.6597,-36 501.6597,-30 507.6597,-24 513.6597,-24"/>
<text text-anchor="middle" x="615.1597" y="-209.2" font-family="Times,serif" font-size="11.00" fill="#c0c0c0">OAuth2</text>
</g>
<g id="clust4" class="cluster">
<title>cluster_\OrbitronDev\OAuth2\Client</title>
<path fill="none" stroke="#c0c0c0" d="M521.6597,-32C521.6597,-32 708.6597,-32 708.6597,-32 714.6597,-32 720.6597,-38 720.6597,-44 720.6597,-44 720.6597,-182 720.6597,-182 720.6597,-188 714.6597,-194 708.6597,-194 708.6597,-194 521.6597,-194 521.6597,-194 515.6597,-194 509.6597,-188 509.6597,-182 509.6597,-182 509.6597,-44 509.6597,-44 509.6597,-38 515.6597,-32 521.6597,-32"/>
<text text-anchor="middle" x="615.1597" y="-181.2" font-family="Times,serif" font-size="11.00" fill="#c0c0c0">Client</text>
</g>
<g id="clust5" class="cluster">
<title>cluster_\OrbitronDev\OAuth2\Client\Provider</title>
<path fill="none" stroke="#c0c0c0" d="M529.6597,-40C529.6597,-40 700.6597,-40 700.6597,-40 706.6597,-40 712.6597,-46 712.6597,-52 712.6597,-52 712.6597,-154 712.6597,-154 712.6597,-160 706.6597,-166 700.6597,-166 700.6597,-166 529.6597,-166 529.6597,-166 523.6597,-166 517.6597,-160 517.6597,-154 517.6597,-154 517.6597,-52 517.6597,-52 517.6597,-46 523.6597,-40 529.6597,-40"/>
<text text-anchor="middle" x="615.1597" y="-153.2" font-family="Times,serif" font-size="11.00" fill="#c0c0c0">Provider</text>
</g>
<!-- \\OrbitronDev\\OAuth2\\Client\\Provider\\OrbitronDevResourceOwner -->
<g id="node1" class="node">
<title>\\OrbitronDev\\OAuth2\\Client\\Provider\\OrbitronDevResourceOwner</title>
<polygon fill="none" stroke="#000000" points="704.6597,-138 525.6597,-138 525.6597,-102 704.6597,-102 704.6597,-138"/>
<text text-anchor="middle" x="615.1597" y="-117.2" font-family="Courier,monospace" font-size="11.00" fill="#000000">OrbitronDevResourceOwner</text>
</g>
<!-- \\League\\OAuth2\\Client\\Provider\\ResourceOwnerInterface -->
<g id="node3" class="node">
<title>\\League\\OAuth2\\Client\\Provider\\ResourceOwnerInterface</title>
<ellipse fill="none" stroke="#000000" cx="226.8299" cy="-120" rx="226.6599" ry="18"/>
<text text-anchor="middle" x="226.8299" y="-116.3" font-family="Times,serif" font-size="14.00" fill="#c0c0c0">\League\OAuth2\Client\Provider\ResourceOwnerInterface</text>
</g>
<!-- \\OrbitronDev\\OAuth2\\Client\\Provider\\OrbitronDevResourceOwner&#45;&gt;\\League\\OAuth2\\Client\\Provider\\ResourceOwnerInterface -->
<g id="edge1" class="edge">
<title>\\OrbitronDev\\OAuth2\\Client\\Provider\\OrbitronDevResourceOwner&#45;&gt;\\League\\OAuth2\\Client\\Provider\\ResourceOwnerInterface</title>
<path fill="none" stroke="#000000" stroke-dasharray="1,5" d="M525.5814,-120C506.5457,-120 485.5984,-120 463.8985,-120"/>
<polygon fill="none" stroke="#000000" points="463.8795,-116.5001 453.8795,-120 463.8794,-123.5001 463.8795,-116.5001"/>
</g>
<!-- \\OrbitronDev\\OAuth2\\Client\\Provider\\OrbitronDevProvider -->
<g id="node2" class="node">
<title>\\OrbitronDev\\OAuth2\\Client\\Provider\\OrbitronDevProvider</title>
<polygon fill="none" stroke="#000000" points="687.6597,-84 542.6597,-84 542.6597,-48 687.6597,-48 687.6597,-84"/>
<text text-anchor="middle" x="615.1597" y="-63.2" font-family="Courier,monospace" font-size="11.00" fill="#000000">OrbitronDevProvider</text>
</g>
<!-- \\League\\OAuth2\\Client\\Provider\\AbstractProvider -->
<g id="node4" class="node">
<title>\\League\\OAuth2\\Client\\Provider\\AbstractProvider</title>
<ellipse fill="none" stroke="#000000" cx="226.8299" cy="-66" rx="198.4651" ry="18"/>
<text text-anchor="middle" x="226.8299" y="-62.3" font-family="Times,serif" font-size="14.00" fill="#c0c0c0">\League\OAuth2\Client\Provider\AbstractProvider</text>
</g>
<!-- \\OrbitronDev\\OAuth2\\Client\\Provider\\OrbitronDevProvider&#45;&gt;\\League\\OAuth2\\Client\\Provider\\AbstractProvider -->
<g id="edge2" class="edge">
<title>\\OrbitronDev\\OAuth2\\Client\\Provider\\OrbitronDevProvider&#45;&gt;\\League\\OAuth2\\Client\\Provider\\AbstractProvider</title>
<path fill="none" stroke="#000000" d="M542.5734,-66C511.7413,-66 474.0653,-66 435.6203,-66"/>
<polygon fill="none" stroke="#000000" points="435.2997,-62.5001 425.2997,-66 435.2997,-69.5001 435.2997,-62.5001"/>
</g>
</g>
</svg>
